<svg width="275" height="302" viewBox="0 0 275 302" fill="none" xmlns="http://www.w3.org/2000/svg">
<g clip-path="url(#clip0_27_138)">
<mask id="path-2-inside-1_27_138" fill="white">
<path fill-rule="evenodd" clip-rule="evenodd" d="M266.352 244.199L136.653 20.1876L6.95264 244.199H266.352ZM147.829 215.259L138.845 232.835L129.86 215.259L105.888 168.365L97.7085 152.365H115.678H162.011H179.981L171.802 168.365L147.829 215.259ZM153.832 168.365L138.845 197.683L123.857 168.365H153.832Z"/>
</mask>
<path d="M136.653 20.1876L164.346 4.1536L136.653 -43.6766L108.959 4.1536L136.653 20.1876ZM266.352 244.199V276.199H321.857L294.046 228.165L266.352 244.199ZM6.95264 244.199L-20.7405 228.165L-48.5517 276.199H6.95264V244.199ZM138.845 232.835L110.352 247.401L138.845 303.138L167.338 247.4L138.845 232.835ZM147.829 215.259L119.336 200.694L119.336 200.694L147.829 215.259ZM129.86 215.259L101.367 229.825L101.367 229.825L129.86 215.259ZM105.888 168.365L134.381 153.799L134.381 153.799L105.888 168.365ZM97.7085 152.365V120.365H45.4115L69.2155 166.93L97.7085 152.365ZM179.981 152.365L208.474 166.93L232.278 120.365H179.981V152.365ZM171.802 168.365L200.295 182.93L200.295 182.93L171.802 168.365ZM138.845 197.683L110.352 212.249L138.845 267.987L167.338 212.249L138.845 197.683ZM153.832 168.365L182.325 182.93L206.129 136.365H153.832V168.365ZM123.857 168.365V136.365H71.56L95.364 182.93L123.857 168.365ZM108.959 36.2216L238.659 260.233L294.046 228.165L164.346 4.1536L108.959 36.2216ZM34.6458 260.233L164.346 36.2216L108.959 4.1536L-20.7405 228.165L34.6458 260.233ZM266.352 212.199H6.95264V276.199H266.352V212.199ZM167.338 247.4L176.322 229.825L119.336 200.694L110.352 218.27L167.338 247.4ZM101.367 229.825L110.352 247.401L167.338 218.27L158.353 200.694L101.367 229.825ZM77.3947 182.93L101.367 229.825L158.353 200.694L134.381 153.799L77.3947 182.93ZM69.2155 166.93L77.3947 182.93L134.381 153.799L126.201 137.799L69.2155 166.93ZM115.678 120.365H97.7085V184.365H115.678V120.365ZM162.011 120.365H115.678V184.365H162.011V120.365ZM179.981 120.365H162.011V184.365H179.981V120.365ZM200.295 182.93L208.474 166.93L151.488 137.799L143.309 153.799L200.295 182.93ZM176.322 229.825L200.295 182.93L143.309 153.799L119.336 200.694L176.322 229.825ZM167.338 212.249L182.325 182.93L125.339 153.799L110.352 183.118L167.338 212.249ZM95.364 182.93L110.352 212.249L167.338 183.118L152.35 153.799L95.364 182.93ZM153.832 136.365H123.857V200.365H153.832V136.365Z" fill="white" mask="url(#path-2-inside-1_27_138)"/>
<path d="M269.66 200.33C268.352 203.818 267.044 207.851 265.736 212.429C264.428 217.007 263.12 221.912 261.812 227.144C260.722 231.286 259.305 237.281 257.561 245.129C255.817 252.759 254.4 260.716 253.31 269C242.192 268.564 229.766 268.346 216.032 268.346C202.516 268.128 190.308 268.019 179.408 268.019C173.522 268.019 166.001 268.019 156.845 268.019C147.907 268.019 137.988 268.128 127.088 268.346C116.406 268.346 105.615 268.455 94.715 268.673C84.033 268.673 73.896 268.782 64.304 269L65.612 262.46C73.024 262.024 78.801 261.152 82.943 259.844C87.085 258.536 90.355 255.92 92.753 251.996C95.151 248.072 97.331 242.186 99.293 234.338L142.457 72.146C144.637 64.08 145.509 58.194 145.073 54.488C144.637 50.564 142.675 47.948 139.187 46.64C135.917 45.114 130.576 44.242 123.164 44.024L124.799 37.484C131.121 37.702 139.841 37.92 150.959 38.138C162.295 38.356 174.176 38.465 186.602 38.465C197.502 38.465 207.857 38.356 217.667 38.138C227.477 37.92 236.197 37.702 243.827 37.484L242.192 44.024C234.78 44.242 229.003 45.114 224.861 46.64C220.719 47.948 217.449 50.564 215.051 54.488C212.871 58.194 210.691 64.08 208.511 72.146L165.347 234.338C163.385 242.186 162.513 248.072 162.731 251.996C162.949 255.92 164.693 258.536 167.963 259.844C171.451 260.934 176.792 261.479 183.986 261.479H189.872C197.284 261.479 205.35 259.517 214.07 255.593C223.008 251.669 231.728 245.238 240.23 236.3C248.95 227.362 256.362 215.372 262.466 200.33H269.66Z" fill="#101A31"/>
</g>
<defs>
<clipPath id="clip0_27_138">
<rect width="275" height="302" rx="48" fill="white"/>
</clipPath>
</defs>
</svg>
